<svg xmlns="http://www.w3.org/2000/svg" enable-background="new 0 0 512 512" viewBox="0 0 512 512" id="muslim">
  <path d="M335.406,324.748c22.476-28.227,33.029-66.374,31.34-113.965c11.977-2.532,20.999-13.085,20.999-25.748
					c0-9.761-5.434-18.203-13.348-22.74c1.741-2.532,2.744-5.646,2.744-8.917c0-0.792,0-50.967,0-50.967
					c0-56.191-45.692-101.883-101.83-101.883h-38.727c-56.138,0-101.83,45.692-101.83,101.883v50.967
					c0,3.324,1.055,6.384,2.796,8.917c-7.914,4.59-13.296,12.979-13.296,22.74c0,12.663,9.022,23.215,20.946,25.748
					c-1.636,47.591,8.864,85.737,31.34,113.965h-4.116c-83.047,0-150.634,67.587-150.634,150.634
					c0,19.891,16.198,36.089,36.089,36.089h396.239c19.891,0,36.089-16.198,36.089-36.089
					C490.208,396.873,427.844,324.801,335.406,324.748z M280.956,293.83c0,8.442-11.449,15.565-24.956,15.565
					c-13.56,0-25.009-7.123-25.009-15.565S242.44,278.265,256,278.265C269.507,278.265,280.956,285.388,280.956,293.83z
					 M145.306,102.411c0-50.388,40.943-91.331,91.277-91.331h38.727c50.335,0,91.278,40.943,91.278,91.331v21.21
					c-77.296-21.896-151.637-20.524-221.282-0.105V102.411z M150.635,200.811c-8.706,0-15.828-7.07-15.828-15.776
					c0-8.864,6.964-15.828,15.828-15.828c0.052,0,0.052-0.053,0.105-0.053c8.653-0.053,15.618-7.123,15.618-15.776v-24.534
					c58.618-14.14,118.713-14.034,179.178,0.264v24.27c0,8.706,7.07,15.776,15.828,15.828c4.432,0,8.389,1.741,11.238,4.59
					c2.849,2.849,4.59,6.806,4.59,11.238c0,8.706-7.123,15.776-15.828,15.776c-1.741,0-3.746,1.108-4.696,2.849
					c-10.236,19.786-21.527,36.511-33.609,49.754c-6.279,6.859-16.989,7.914-23.637,1.688c-22.687-21.368-64.105-21.368-86.845,0
					c-6.859,6.437-17.57,4.96-23.637-1.688c-12.029-13.19-23.373-29.969-33.609-49.754
					C154.434,201.972,152.482,200.811,150.635,200.811z M185.88,335.301c10.236,10.289,22.424,18.994,36.511,26.064
					c20.735,10.394,45.797,10.764,67.165,0c14.088-7.07,26.275-15.776,36.511-26.064c18.414,0,14.298,0,17.095,0.053
					c-3.06,36.986-40.943,66.321-87.162,66.321s-84.102-29.335-87.162-66.268C175.697,335.195,174.22,335.353,185.88,335.301z
					 M454.119,500.919H57.881c-14.087,0-25.537-11.449-25.537-25.537c0-72.494,55.347-132.273,125.942-139.396
					c3.43,42.526,45.903,76.24,97.714,76.24s94.232-33.715,97.714-76.135c70.384,7.123,125.942,67.429,125.942,139.29
					C479.656,489.47,468.207,500.919,454.119,500.919z"></path>
</svg>
