<svg xmlns="http://www.w3.org/2000/svg" enable-background="new 0 0 512 512" viewBox="0 0 512 512" id="muslimah">
  <path d="M390.4,284.264V134.35c0-78.369-66.427-138.931-143.303-133.973C176.725,4.908,121.6,65.098,121.6,137.336v146.928
				C61.997,287.036,14.336,336.403,14.283,396.7v85.992c0,16.1,13.115,29.215,29.215,29.215h425.004
				c16.1,0,29.215-13.115,29.215-29.215V396.7C497.664,336.403,450.003,287.036,390.4,284.264z M126.931,294.766
				c2.932,0,5.331-2.399,5.331-5.331V137.336c0-66.64,50.753-122.138,115.474-126.296c71.065-4.531,132.001,51.393,132.001,123.311
				v155.085c0,2.932,2.399,5.331,5.331,5.331c55.071,0,99.96,43.876,101.773,98.521c-153.166,65.254-308.517,65.254-461.683,0
				C26.971,338.643,71.86,294.766,126.931,294.766z"></path>
  <path d="M276.845,67.444h-41.69c-43.983,0-80.182,35.826-80.182,80.181v43.45c0,55.711,45.315,101.026,101.027,101.026
				s101.027-45.315,101.027-101.026v-43.45C357.027,104.176,321.84,67.444,276.845,67.444z M346.364,191.075
				c0,49.847-40.57,90.364-90.364,90.364s-90.364-40.517-90.364-90.364v-43.45c0-6.131,0.906-12.049,2.399-17.7
				c58.377-12.155,117.553-12.155,175.93,0c1.493,5.651,2.399,11.569,2.399,17.7V191.075z"></path>
</svg>
